<?xml version="1.0" encoding="UTF-8" standalone="no"?>
<!-- Created with Inkscape (http://www.inkscape.org/) -->

<svg
   xmlns:dc="http://purl.org/dc/elements/1.1/"
   xmlns:cc="http://creativecommons.org/ns#"
   xmlns:rdf="http://www.w3.org/1999/02/22-rdf-syntax-ns#"
   xmlns:svg="http://www.w3.org/2000/svg"
   xmlns="http://www.w3.org/2000/svg"
   xmlns:sodipodi="http://sodipodi.sourceforge.net/DTD/sodipodi-0.dtd"
   xmlns:inkscape="http://www.inkscape.org/namespaces/inkscape"
   width="1024mm"
   height="1024mm"
   viewBox="0 0 1024 1024"
   version="1.1"
   id="svg8"
   inkscape:version="0.92.1 r15371"
   sodipodi:docname="buildings.svg"
   inkscape:export-filename="/home/antoine/ward/prog/www/landscape2018/road_generator/in.png"
   inkscape:export-xdpi="25.4"
   inkscape:export-ydpi="25.4">
  <defs
     id="defs2" />
  <sodipodi:namedview
     id="base"
     pagecolor="#ffffff"
     bordercolor="#666666"
     borderopacity="1.0"
     inkscape:pageopacity="0.0"
     inkscape:pageshadow="2"
     inkscape:zoom="0.0875"
     inkscape:cx="2677.8978"
     inkscape:cy="1717.0579"
     inkscape:document-units="mm"
     inkscape:current-layer="layer1"
     showgrid="false"
     inkscape:window-width="1600"
     inkscape:window-height="836"
     inkscape:window-x="0"
     inkscape:window-y="27"
     inkscape:window-maximized="1"
     showguides="true"
     inkscape:snap-global="false">
    <inkscape:grid
       type="xygrid"
       id="grid4621" />
  </sodipodi:namedview>
  <metadata
     id="metadata5">
    <rdf:RDF>
      <cc:Work
         rdf:about="">
        <dc:format>image/svg+xml</dc:format>
        <dc:type
           rdf:resource="http://purl.org/dc/dcmitype/StillImage" />
        <dc:title />
      </cc:Work>
    </rdf:RDF>
  </metadata>
  <g
     inkscape:label="Calque 1"
     inkscape:groupmode="layer"
     id="layer1"
     transform="translate(0,727)">
    <path
       id="path4527"
       transform="matrix(0.26458333,0,0,0.26458333,0,-727)"
       style="fill:#000000;fill-opacity:1;fill-rule:evenodd;stroke:#ffffff;stroke-width:18.89763804;stroke-linecap:butt;stroke-linejoin:miter;stroke-opacity:1;stroke-miterlimit:4;stroke-dasharray:none"
       d="m 2756.709,3480.9219 -237.2481,23.4375 -0.3242,0.4433 -147.7715,7.3907 c -0.2191,4.7003 -0.3903,9.4888 -0.541,14.3203 l 322.1953,-10.5625 z m 229.3359,-249.6992 -257.8711,214.541 101.3711,-10.0098 247.7363,-180.0371 z m 465.7774,-18.8633 1.1972,0.7344 0.4121,-0.2579 z m -630.295,-25.3028 c -85.8011,67.3799 -174.3993,151.3448 -270.4355,276.1934 l 143.5488,-14.1758 269.0645,-223.8476 z m -118.1543,-44.5546 -121.5722,113.6425 -120.5547,213.7129 38.3809,-1.9199 c 99.6463,-134.4768 192.0538,-224.2287 280.7031,-295.8887 z m 421.711,-26.9532 -103.4688,86.0821 94.9883,25.5019 111.5274,-81.0527 z m -524.8652,-12.6523 c -146.368,138.4092 -202.4274,222.4512 -221.6641,334.7246 -2.0034,11.6927 -3.2961,24.099 -4.5469,36.5996 l 70.332,-3.5176 -3.998,-2.2558 126.4297,-224.1211 116.9844,-109.3574 z m 762.5859,-7.9649 -46.9277,34.1055 11.4414,7.0137 143.7714,42.5976 47.2735,-36.0976 z m -382.8985,-22.3964 c -40.041,27.7771 -80.0272,55.5682 -120.3398,85.5918 l 139.707,37.5058 104.0215,-86.539 z m -1317.9238,-19.2325 -16.1308,36.0039 c -0.01,0.015 -0.01,0.029 -0.014,0.043 l -0.023,0.045 c -9.7902,22.1511 -17.841,44.2403 -24.3672,66.2871 l 88.7148,63.125 50.6797,-106.1855 z m 1551.1543,-11.0117 -53.1172,44.1914 102.5586,30.3867 13.2989,-12.3476 5.123,3.1406 38.2012,-27.7598 z m -386.3711,-15.1348 -92.6914,86.6465 80.5156,30.9121 c 40.366,-31.0064 79.8022,-58.6152 119.0625,-85.8886 z m 258.3399,-30.2636 c -22.042,16.5291 -43.9928,32.5107 -65.8379,47.8867 l 118.9648,35.248 54.1856,-45.082 z m -363.0039,-0.7461 c -29.6183,23.7554 -59.8492,49.0885 -91.3438,77.9902 l 83.6973,32.1348 91.2929,-85.3418 z m 811.3144,-25.2012 -132.3437,96.1699 154.2382,47.2149 106.0469,-80.9785 z m 38.4434,-47.7168 -12.3262,18.1289 8.8281,4.1856 -0.3183,0.2363 122.8125,59.9102 11.4394,-11.7403 z m -187.7207,-23.2051 -137.2071,114.1524 109.3477,38.7754 138.3437,-100.543 z m -354.4121,-0.1816 -147.7696,104.2559 91.1953,27.0175 c 1.7177,-1.1954 3.4808,-2.4499 5.1973,-3.6464 45.0933,-31.4363 89.9531,-63.9859 135.2285,-100.5782 z m -1293.0918,-13.1738 -66.8692,149.2617 99.2559,59.5547 61.1406,-128.1055 9.2539,-19.043 z m 1173.7793,-25.3145 c -48.56,31.7367 -98.5325,65.2217 -152.1485,106.0918 l 77.5235,22.9649 148.9453,-105.0801 z m 351.5839,-19.2441 c -47.996,49.2666 -94.9182,90.9941 -141.039,127.3965 l 105.2539,37.3242 139.1074,-115.7305 z m -89.9785,-42.6602 -103.664,73.1387 80.0273,25.8144 c 25.6219,-22.0607 51.596,-46.886 77.7832,-73.2793 z m -1877.7168,-12.9043 -72.7246,64.5547 191.4414,156.2793 176.668,125.7051 c 3.4283,-10.731 7.1974,-21.4758 11.334,-32.2324 l -7.3555,-28.7832 z m 499.4317,-27.3301 -49.3184,110.084 103.293,61.9746 52.5547,-108.1425 z m 1279.3242,-6.6855 c -39.2518,28.254 -80.1354,55.0933 -121.9863,82.2266 l 72.291,23.3203 109.4433,-77.2149 z m 306.6875,-47.1113 c -30.4602,39.5495 -60.5148,76.1315 -89.9102,108.0644 l 235.1348,111.4883 17.2148,-25.3281 z m -2198.3125,-26.5235 -79.3106,74.6914 104.625,85.4082 73.8321,-65.5371 z m 2111.8203,-16.4238 -93.2715,108.4102 54.0059,25.6074 c 30.8634,-32.9865 62.3993,-70.5439 94.5703,-112.293 z m 137.9668,-26.9961 c -9.3937,13.4361 -18.7356,26.4891 -28.0137,39.0879 l 157.2403,188.0098 16.0332,-38.0762 z m -216.5781,-3.8828 c -34.9703,36.0069 -70.7734,66.976 -107.5098,95.2637 l 57.4395,27.2383 91.416,-106.2618 z m -1346.252,-39.0156 -66.8711,149.2636 107.0391,64.2247 71.2598,-146.6309 z m -588.8027,-6.1153 -84.3789,79.4649 99.5527,94.9453 87.5332,-77.7012 12.5508,14.1348 -86.3613,76.6543 276.3574,263.5762 -58.2891,-228.1055 c -6.4406,-6.242 -116.3812,-112.3973 -246.9648,-222.9688 z m 2127.3906,-56.1933 -87.6152,101.8554 52.9355,20.795 c 22.4219,-30.4745 45.2126,-63.2611 68.4805,-99.0938 z m -72.3574,-50.4317 c -30.4297,46.4277 -61.2603,86.6765 -92.6211,121.8887 l 40.0996,15.7539 93.7129,-108.9355 z m -1387.3399,-63.3554 -71.1093,158.7285 111.9394,67.1601 75.7754,-155.9257 z m -425.9707,-50.6739 -57.5546,59.1563 341.123,205.75 -9.7578,16.1894 -344.8945,-208.0351 -50.5391,51.9453 345.9297,283.3691 90.1308,-201.1914 -0.6093,-0.3652 3.0527,-5.0879 18.2129,-40.6562 z m 1885.0977,-8.4746 c -16.9722,32.6828 -34.0136,62.8122 -51.1543,90.8203 l 137.2813,95.6758 -9.7598,15.2949 c -9.904,15.5237 -19.5001,28.7957 -29.2695,43.3399 l 166.3359,216.4375 -29.9395,71.125 139.8008,75.7949 31.8867,-32.7265 -108.5703,-45.7149 28.5703,-68.5723 -137.1425,-205.7128 40,-142.8575 z m -2444.6289,-1.498 -149.48047,161.1601 275.06057,224.5391 80.3808,-75.6973 -57.1211,-54.4785 13.045,-13.6699 57.8515,55.1797 83.5293,-78.6641 c -27.9116,-23.4225 -56.5897,-46.8847 -85.2929,-69.4843 l -81.586,88.3398 -27.7617,-25.6445 79.2285,-85.793 c -52.5036,-40.1091 -103.9982,-76.6195 -148.8183,-102.1055 -13.09004,-7.4433 -26.11262,-15.3591 -39.0352,-23.6816 z m 235.6074,-79.3106 -111.1152,112.1309 c 28.985,19.6812 59.0845,41.7022 89.3613,64.8125 l 103.8418,-112.4434 z m 839.3711,-17.7851 c -26.5061,34.7298 -50.1566,72.7437 -71.0566,116.6289 l -10.6387,23.7441 117.1172,70.2715 55.125,-113.4316 26.4101,-27.0391 z m -933.0976,-55.8613 -115.63872,124.6699 c 10.46264,6.6249 20.94222,13.1256 31.46872,19.1113 16.2911,9.2636 33.2957,19.8116 50.7735,31.3047 l 112.1679,-113.1914 z m 368.4433,-14.7305 -266.3828,288.4473 c 176.4327,138.764 350.9863,309.3535 350.9863,309.3535 l 3.8028,3.705 64.709,253.2657 104.3867,-233.002 -385.7168,-315.9512 169.2949,-174 358.6797,172.4043 45.5078,-101.5742 c -191.9016,-60.3953 -296.9152,-80.517 -367.7715,-123.4765 -32.1929,-19.5183 -56.7401,-45.0833 -77.4961,-79.1719 z m 419.4531,-1.3731 -118.5605,120.6504 c 45.6109,13.341 97.3633,28.7758 160.166,48.6465 18.8677,-39.1309 40.1192,-73.7456 63.293,-105.709 z m -1130.39449,-1.3437 -165.54102,154.6855 187.3418,152.9317 147.22852,-158.7305 c -60.67896,-42.7755 -118.20803,-94.0538 -169.0293,-148.8867 z m 539.84379,-13.4785 -90.2364,91.0566 81.5684,64.0879 73.9043,-80.0273 z m 875.0429,-56.3789 c -47.9749,41.6811 -90.385,82.2624 -127.5097,128.1953 l 118.748,71.248 97.0996,-99.4101 z m -419.4238,-10.6035 -153.375,147.0605 c 32.0014,13.9523 75.2263,27.5297 128.6523,43.2949 l 126.4512,-128.6797 z m -537.1719,-26.9317 -102.9062,110.9434 79.2676,62.2812 92.7675,-93.623 z m -326.48826,-15.7715 -104.17382,97.3438 c 50.3541,54.2813 107.63716,104.9837 167.4082,146.6699 l 100.71098,-108.5781 z m 742.44926,-30.7773 -136.3516,128.4238 c 19.0126,34.2191 39.2409,55.8727 68.5195,73.9668 l 155.5879,-149.1953 z m 416.5898,-7.9785 -133.2285,135.5683 100.7832,61.0996 c 39.5442,-48.8817 84.7403,-91.8719 134.3066,-134.8535 z m 265.7988,-26.6094 c -44.5707,37.4387 -86.0706,71.0614 -124.2304,103.5937 -1.0748,0.9163 -2.1318,1.8277 -3.2012,2.7422 l 87.2578,98.8106 116.2402,-119.0078 z m -1326.34176,-26.6719 -84.57422,79.0293 162.89448,134.5664 86.7188,-93.4941 z m 526.67576,-9.8418 -71.1387,66.002 c 12.0518,37.7425 23.5762,72.3971 34.6133,98.039 l 120.2657,-113.2754 z m 404.9942,-15.082 -138.2715,132.5859 100.7109,61.0567 133.2363,-135.5762 z M 793.21289,1934.793 680.67773,2020.7715 c 18.61484,29.5254 40.23873,59.4984 64.29493,88.9355 5.97305,7.3091 12.333,14.5161 18.58789,21.7539 l 109.4707,-102.2929 z m 270.65041,-32.2188 -58.3418,54.5176 163.9219,119.2812 68.375,-73.7168 z m 351.459,-4.5195 c 3.52,27.9354 9.5757,57.3653 18.8828,88.6484 l 50.3222,-46.6914 z m 772.5507,-12.8008 -108.6523,110.5586 104.6602,63.5059 c 37.357,-31.4962 77.9129,-64.9523 120.3164,-100.7403 z m 261.0528,-4.0469 c -40.8852,38.309 -79.8081,72.3126 -116.666,103.5215 l 74.8476,84.7559 109.2832,-111.8848 z m -645.125,-8.3105 -139.834,131.6992 87.4375,53.0098 138.2852,-132.5938 z m -885.16018,-33.9317 -110.39062,84.3418 78.60742,92.9414 121.00588,-113.0722 z m -347.70117,-21.4414 -118.44531,31.961 c 49.871,199.6589 110.15046,432.1932 117.98828,462.3906 l 165.4336,-154.584 c -6.8137,-7.8688 -13.70912,-15.7152 -20.2129,-23.6738 -78.16371,-95.6477 -133.59698,-196.1141 -144.51562,-281.2793 -1.37423,-10.7191 -1.39084,-22.3512 -0.24805,-34.8145 z m 1494.98635,-9.1367 -114.5606,109.8418 94.666,57.4375 109.1192,-111.0371 z m -377.8203,-5.6992 -141.1563,130.9687 83.4746,50.6114 139.8496,-131.7149 z m -1022.29691,-31.7871 -48.16992,6.791 c -7.65642,30.0233 -10.94645,54.3775 -8.96484,69.834 5.77827,45.0703 27.96787,99.8659 62.06836,157.0586 l 110.2539,-84.2363 -121.71875,-143.9258 z m 538.36131,-0.8555 0.709,0.7598 -126.5742,118.2754 172.6992,99.3633 112.8008,-121.6153 z m -406.03709,-17.8047 -120.21679,16.9551 118.11718,139.6582 106.57422,-81.4258 z m 1778.93169,-5.1211 c -9.6537,11.8495 -19.7549,24.2222 -31.0293,37.9629 l -0.4571,0.5606 -0.5019,0.5234 c -28.2698,29.5094 -55.7364,56.7033 -82.4004,82.0567 l 66.957,75.8203 77.6719,-79.5215 37.1641,-41.0762 z m -627.1387,-11.8574 -117.5781,110.7422 85.5781,51.9316 115.0547,-110.3222 z m -384.375,-6.9394 -141.002,131.1308 88.791,53.8301 141.17,-130.9844 z m 809.7793,-33.8164 -160.3496,163.1621 119.4765,75.3086 c 28.6689,-24.7143 58.4458,-51.2577 89.3164,-80.25 l -6.1386,-6.9512 14.166,-12.5117 5.7109,6.4668 c 20.8983,-19.919 42.2869,-40.977 64.1738,-63.3887 z m -538.0293,-30.2442 -120.3848,111.6953 81.9024,49.7032 118.082,-111.2168 z m -378.9121,-0.9668 c -25.0875,45.1913 -42.5612,96.1988 -46.1075,155.9649 l 119.6895,-111.3125 z m 803.1562,-42.4902 -167.5097,160.623 88.2285,55.6153 160.6816,-163.5098 z m -1303.96678,-0.2578 -109.1914,121.3066 187.63278,135.0137 135.502,-126.6133 z m 1725.93168,-5.0781 c -35.6455,44.0262 -64.3787,79.9862 -104.1075,128.7792 l 11.4278,-10.0878 66.3965,75.1855 114.1191,-126.1328 z m -967.1172,-27.4258 -122.0664,113.5273 88.9883,53.9981 120.8925,-112.1602 z m 768.6328,-5.1582 -82.6563,84.1015 125.0723,81.0078 c 30.1573,-36.8614 52.2863,-64.3494 74.9336,-92.4511 z M 385.70117,1548.5762 c -0.81375,3.2108 -1.2539,5.7129 -1.2539,7.375 0,15.6458 28.68141,135.479 63.48046,275.1972 l 125.74805,-33.9355 c 6.83989,-39.2889 23.00668,-85.5484 43.87891,-137.0332 1.88962,-4.6611 3.84168,-9.3691 5.82226,-14.0977 z m 1763.20313,-0.7266 -170.5586,160.6445 82.7441,52.1602 167.8653,-160.9551 z m -1312.89258,-0.998 c -3.68579,5.839 -8.38108,13.911 -13.72852,23.5488 -11.41398,20.5717 -25.67934,47.9286 -39.58203,75.1992 -24.67306,48.3971 -43.10266,86.2847 -48.09961,96.5195 l 71.81836,-10.1328 118.25,-131.3867 z m 427.37308,-1.8907 -139.086,132.4629 250.7324,152.0078 c 2.7778,-70.7721 22.9526,-131.5629 52.3008,-184.9824 z m 1109.8789,-31.2754 -83.6895,80.2422 80.418,52.086 82.0879,-83.5332 z m -782.2227,-4.6503 c -41.4399,35.5075 -81.187,75.3363 -112.957,121.9941 l 82.6621,50.1582 122.5684,-113.9902 z m -851.14647,-20.4551 c -32.63327,63.8531 -63.90959,128.0756 -87.3125,185.8027 -12.1024,29.8526 -22.06606,58.1783 -29.48047,83.459 l 88.79297,-12.5195 c 0.37297,-0.766 26.26643,-53.9522 53.97656,-108.3067 13.95447,-27.3722 28.26306,-54.837 39.88477,-75.7832 5.36196,-9.664 10.09788,-17.8324 14.09375,-24.1797 z m 1299.39647,-11.7227 -173.3183,160.8067 79.3476,50.0136 170.9199,-160.9843 z m 553.9512,-4.0957 -81.0606,82.4766 114.1836,70.6972 c 7.0715,-8.7706 16.9224,-20.7833 27.3399,-33.457 l -4.8028,-3.7031 11.5391,-14.9707 5.2715,4.0664 c 12.8812,-15.6476 26.043,-31.624 36.6348,-44.6016 z m 207.5098,-0.2597 c -45.207,54.5366 -77.7647,94.3173 -105.336,128.2792 l 88.6485,68.3731 111.6523,-123.4043 z m -540.9629,-29.084 -82.5528,77.7539 79.7461,51.6504 83.0996,-79.6875 z m -1167.2325,-2.1192 -110.98629,149.5938 125.98829,76.3808 139.0918,-132.4668 z m 357.3711,-21.2148 -126.1562,117.3125 122.9238,74.5859 C 1478.1067,1564.185 1516.41,1523.0068 1556.0879,1487 Z m 1030.9844,-9.6192 -79.4726,76.2032 77.7968,48.1738 79.711,-81.1035 z m -331.7559,-35.5429 -81.2832,75.4121 76.6993,49.6738 81.9531,-77.1855 z m 549.3301,-9.2578 -77.7597,79.1191 106.1211,58.8555 c 18.3188,-22.3503 44.5374,-53.9111 69.0507,-83.4883 z m 197.8262,-7.8379 c -31.829,38.0454 -59.4267,71.1547 -83.4805,100.1289 l 95.6016,73.7383 87.6699,-96.8965 z m -532.5508,-12.336 -75.4941,71.1094 79.9902,49.5254 78.0567,-74.8535 z M 478.125,1329.8789 c -38.21843,83.3978 -72.42809,160.8564 -86.66016,200.6328 l 239.32422,98.1875 c 22.22268,-51.2359 49.01288,-105.7105 76.69922,-159.7695 z m 1322.3105,-7.7305 c -2.5943,3.4828 -5.2992,6.8553 -7.8398,10.3926 -34.6016,49.1604 -102.2452,95.7704 -170.875,151.1524 l 90.2285,56.8769 174.7656,-162.541 z m 790.1504,-16.8457 -81.1191,77.7754 76.9707,42.6895 77.8555,-79.2305 z m -563.6523,-6.0605 -78.9629,73.4355 87.1797,56.4629 80.6758,-74.8594 z m -1180.87305,-7.5215 c -24.00957,42.1541 -49.35327,87.4836 -75.29493,136.2539 -4.69756,8.8315 -9.00419,17.9119 -13.67187,26.834 l 83.84766,50.8301 L 946.57227,1356.209 962,1367.1191 857.14062,1515.459 l 91.97071,55.7539 110.99417,-149.6094 z m 1933.00785,-8.0547 -53.1211,54.0508 94.4375,52.8242 c 18.4582,-22.1963 25.0556,-30.5547 46.0761,-55.7402 l -0.4121,-0.3184 3.1953,-4.1426 c -12.021,-8.2077 -31.7548,-20.1489 -71.6328,-38.7168 -5.2237,-2.4322 -12.7459,-5.3854 -18.5429,-7.957 z m -529.7696,-1.6523 -71.4043,66.2441 77.1114,47.7461 74.0546,-69.7598 z m 225.752,-41.3399 -82.4102,77.6133 82.2266,45.6055 81.2305,-77.8867 z m 186.0176,-2.959 -41.9668,40.2383 72.6523,40.6367 50.043,-50.9121 c -23.3166,-9.3939 -50.0288,-19.3956 -80.7285,-29.9629 z m -1502.9317,-1.5683 -99.3047,140.4746 231.3516,140.3867 126.666,-117.7773 -131.7129,-83.0274 -94.5625,133.7696 -15.4355,-10.9024 93.9863,-132.959 z m 497.7754,-7.6016 -177.3418,164.9121 107.125,67.5293 c 74.8632,-63.1565 147.7272,-110.0416 175.9922,-150.1992 l 0.053,-0.074 0.051,-0.066 c 2.2058,-3.0725 4.6026,-6.0333 6.8574,-9.0781 z m -917.4746,-2.1367 -139.2832,132.6504 125.5332,76.1055 c 4.3355,-8.2741 8.34751,-16.7433 12.70508,-24.9356 26.33817,-49.5157 52.02994,-95.4412 76.34961,-138.123 z m 1160.6934,-6.3008 c -28.0199,21.2997 -52.7256,45.6655 -75.1094,72.2852 l 91.2402,59.0918 78.3574,-72.875 z m 222.4765,-8.916 -65.9804,61.3652 88.9375,55.0684 69.9511,-64.9082 z m 887.0469,-0.098 c -34.7079,41.7248 -67.5901,85.4406 -95.9004,126.9335 l -0.5254,0.7735 -0.5976,0.709 c -1.1272,1.3458 -2.0708,2.4768 -3.1875,3.8105 l 100.3769,77.4199 32.7695,-36.2187 67.6543,-95.8438 z m -485.4805,-15.752 -19.2812,18.1602 80.7207,45.1542 35.5508,-34.082 c -29.3251,-9.4788 -61.2992,-19.1653 -96.9903,-29.2324 z m -1450.2988,-12.9414 -100.30078,141.8808 70.06058,42.5118 99.4902,-140.7383 z m 1289.1309,-4.9668 -83.5567,77.5254 79.4961,44.084 82.5156,-77.7168 z m 61.2695,-9.0274 46.0332,25.7481 11.0215,-10.3789 c -19.0055,-5.0897 -35.6103,-10.0244 -56.3399,-15.207 -0.2478,-0.062 -0.4673,-0.1005 -0.7148,-0.1622 z m -399.9727,-11.7304 c -4.7838,1.4794 -9.8767,2.6905 -14.5058,4.3027 -27.713,9.6519 -52.5692,21.8725 -75.5313,35.8184 l 89.0469,55.1269 64.5332,-60.0136 z m -506.8808,-18.4805 4.3808,4.5957 -175.1953,166.8535 99.877,62.959 177.7129,-165.2519 z m 686.7031,-2.8164 -52.4043,48.7422 92.9531,51.5488 83.666,-77.6289 -24.33,-13.6055 c -35.7282,-5.2557 -68.8057,-8.0702 -99.8848,-9.0566 z m -1629.79297,-9.1582 c -23.64391,49.81 -51.91166,109.8253 -79.30664,169.1035 l 88.38086,53.582 139.28906,-132.6562 z m 2523.47457,-12 c -1.1004,1.0895 -2.2006,2.1712 -3.3007,3.2715 -24.3493,24.3529 -48.8576,51.1704 -72.6719,79.1289 l 99.3183,76.6035 64.4434,-91.293 z M 957.0918,1109.416 c -4.06617,4.0752 -8.15627,8.1781 -8.70313,8.7481 -1.02924,1.6597 -36.35109,59.3091 -83.4375,140.8105 l 91.4336,55.4824 100.48043,-142.1465 z m 471.5098,-28.1015 -187.4688,162.4746 49.8399,31.416 1.3085,-1.8516 15.4356,10.9102 -0.7324,1.0351 22.1308,13.9492 176.4766,-168.0683 z m 1747.3242,-35.8008 c -20.8929,15.44 -43.0532,34.209 -65.4043,55.4101 l 84.9844,65.5508 48.3828,-68.541 z M 1863.0117,1035.9648 1684.459,1202 l 107.6348,69.7148 c 51.5925,-62.1276 115.948,-115.6662 204.2714,-146.4277 1.7014,-0.5926 3.412,-1.1749 5.1309,-1.75 z m 400.9649,-38.92378 -48.6485,41.67188 0.8711,0.5098 -9.5449,16.3144 -6.5156,-3.8144 -54.0313,46.2812 c 13.8939,-0.6845 28.002,-1.1515 42.7559,-0.9746 l 0.3984,-0.3691 0.3692,0.3984 c 36.3051,0.4711 75.2884,3.6272 117.2031,9.7226 l 1.498,-2.6718 7.4844,4.1855 c 17.8562,2.7458 36.0237,5.8042 54.959,9.6328 l 49.7637,-44.9804 z m 1091.0722,-1.50391 c -36.9072,0.48276 -68.2043,1.96464 -92.2676,4.85739 -18.9299,3.2344 -43.405,15.205 -70.7285,33.6973 l 73.0762,56.3613 112.6895,-16.6953 z m 23.5957,-0.18945 c -1.3494,0.003 -2.6263,0.0185 -3.9629,0.0234 l 22.0039,75.59184 159.1915,-23.584 -11.5782,-48.79299 c -61.5431,-2.02005 -117.6621,-3.3333 -165.6543,-3.23828 z m -787.1367,-25.98828 -175.5703,158.68942 c 5.8363,1.3844 11.2794,2.3696 17.2148,3.8535 28.8956,7.2243 53.0087,14.1809 78.6602,21.2305 l 144.3242,-170.10155 z m -921.1973,-38.00782 c -0.6983,0.003 -1.4107,0.0173 -2.1367,0.043 -22.6749,0.80266 -50.4097,11.81042 -51.7617,12.34961 l -48.0859,28.84961 -108.6094,83.84372 104.7793,67.8613 c 7.8445,-4.982 29.2937,-18.9899 56.3906,-43.8789 32.6115,-29.9542 65.9739,-71.2777 73.7598,-112.80268 3.89,-20.74693 0.1058,-27.48458 -3.3145,-30.79688 -3.2065,-3.10528 -10.5459,-5.51806 -21.0215,-5.46875 z m 312.5411,-6.82617 -105.5274,98.13081 148.043,93.6211 c 17.6201,-4.8482 36.0937,-8.8428 55.4687,-11.9394 l -0.096,-0.1113 84.8828,-72.709 z m -801.0254,-3.04492 c -91.6967,66.26903 -157.9507,124.80473 -196.49222,161.05863 l 110.74802,69.8105 177.4043,-168.95702 13.0293,13.6875 -173.9453,165.66402 95.1582,59.9844 187.8477,-162.8066 z m 1569.5722,-2.11524 -34.2656,37.93555 8.8223,1.86524 -173.8145,204.84768 c 35.7891,10.3208 67.4127,20.2673 96.711,29.9765 l 171.7382,-216.53903 3.2774,-21.85156 z m 60.336,-66.79882 -34.041,37.6875 87.6171,43.81445 -8.8437,58.96484 -169.6367,213.8906 c 52.4657,18.5191 95.2019,35.7525 126.7324,50.4336 42.6289,19.8487 65.0563,33.8191 79.2012,43.6563 50.3235,-71.9167 111.8948,-148.1162 174.0136,-210.2442 40.5989,-40.6048 80.5216,-75.3852 118.8028,-98.68747 -56.9282,-23.34425 -192.8823,-77.45788 -373.8457,-139.51562 z m -721.2403,-28.13477 -93.1914,86.65625 183.5098,107.41991 79.332,-67.95116 -176.7324,-115.26562 z m 601.6856,-11.74219 -105.6602,116.98047 109.2344,23.10742 38.1016,-42.18359 -15.9024,-7.95117 52.7129,-64.00781 c -25.7325,-8.64575 -51.8567,-17.31251 -78.4863,-25.94532 z M 954.51367,774.25 740.4043,928.14258 952.26367,1061.6934 c 36.27621,-34.6618 102.10383,-94.00272 195.35353,-162.37309 z m 1580.53713,-9.4043 -255.4141,218.78125 156.0254,75.65235 67.4649,-60.97852 -120.2969,-91.99023 11.4785,-15.00586 123.0723,94.11133 18.2753,-16.51758 -5.5273,-4.99414 142.3262,-157.57227 c -20.0825,-6.43282 -40.4641,-12.83931 -61.1934,-19.19336 -24.9731,-7.6549 -50.709,-14.90286 -76.2109,-22.29297 z m -874.0215,-23.41601 -304.2305,248.34961 69.2871,44.873 120.9004,-93.32808 52.5723,-31.54297 1.1973,-0.51758 c 0,0 32.2392,-14.44462 66.082,-15.64258 16.9214,-0.59898 36.2063,1.93604 50.7793,16.04883 14.573,14.11283 19.3752,37.16979 14.1738,64.91016 -10.3967,55.44972 -49.7679,101.00252 -85.3418,133.67772 -17.6494,16.2113 -34.7085,29.2782 -47.4648,38.3789 l 52.7578,34.1699 288.7129,-268.4648 z m -71.8926,-43.9668 c -143.6498,54.83724 -271.338,129.13497 -374.1953,200.43359 l 108.5352,70.29688 303.3808,-247.66211 z m 646.7559,-8.23828 -140.9238,131.04492 180.1308,117.47656 216.6426,-185.56836 C 2406.8983,728.44706 2320.5084,706.8908 2235.8926,689.22461 Z M 1700.373,660.51758 c -4.6168,1.19682 -9.6128,2.08524 -14.0625,3.41601 -17.4785,5.2272 -34.4475,11.27732 -51.5312,17.14258 l 23.1055,14.12891 z m 361.3887,-1.89063 -194.9043,164.38672 102.3438,62.59961 220.6504,-205.17969 c -43.4792,-8.37157 -86.518,-16.04921 -128.0899,-21.80664 z m -203.1504,-15.76367 c -28.7526,0.0793 -56.0678,1.47471 -81.8945,4.12891 l -84.6621,69.10937 140.8164,86.13282 177.8086,-149.97071 c -48.8315,-5.44384 -95.8458,-8.90594 -139.6582,-9.35351 -4.1661,-0.0426 -8.3027,-0.0582 -12.4102,-0.0469 z m 664.5547,-99.3418 -147.1269,138.35157 c 50.389,12.72317 100.4615,26.50697 150.1328,40.81445 l 167.834,-143.76367 z M 1303.9922,523.0625 987.4668,750.56445 l 86.1914,55.82617 312.0254,-233.36328 z m 936.3516,-15.05469 -138.2774,116.625 c 74.6685,11.64027 152.1555,28.02686 229.9766,46.72071 l 143.1777,-134.62305 z m 598.7089,-3.55859 -269.6465,230.96484 c 17.614,5.2272 35.5697,10.26076 52.9297,15.58203 61.0246,18.70557 119.1162,37.84715 175.1348,56.81055 L 3018.293,592.41211 Z m -222.9707,-48.29297 -59.2754,55.74023 173.4805,35.95118 65.1602,-55.81446 z" />
  </g>
</svg>
